<?xml version="1.0" standalone="no"?>
<!DOCTYPE svg PUBLIC "-//W3C//DTD SVG 20010904//EN"
 "http://www.w3.org/TR/2001/REC-SVG-20010904/DTD/svg10.dtd">
<svg version="1.0" xmlns="http://www.w3.org/2000/svg"
 width="1254.000000pt" height="1254.000000pt" viewBox="0 0 1254.000000 1254.000000"
 preserveAspectRatio="xMidYMid meet">

<g transform="translate(0.000000,1254.000000) scale(0.100000,-0.100000)"
fill="#000000" stroke="none">
<path d="M5337 10283 c-14 -32 -60 -141 -102 -243 -42 -102 -173 -412 -290
-690 -117 -278 -299 -712 -405 -965 -106 -253 -275 -656 -375 -895 -101 -239
-266 -633 -368 -875 -307 -731 -688 -1635 -882 -2090 -101 -236 -240 -565
-310 -730 -70 -165 -178 -419 -240 -565 -186 -437 -275 -648 -275 -654 0 -4
409 -5 909 -4 l909 3 39 31 c21 17 48 49 60 71 13 22 102 221 198 444 97 222
186 424 198 448 12 25 56 79 97 122 59 60 93 85 160 118 150 73 110 71 1196
71 928 0 974 -1 1047 -19 128 -33 255 -112 322 -200 21 -28 40 -49 42 -48 2 3
-106 259 -508 1200 l-174 407 -600 0 c-667 0 -659 1 -787 -67 -49 -25 -90 -59
-140 -112 -39 -42 -68 -71 -64 -64 6 10 66 154 319 753 171 406 272 649 437
1045 89 215 195 469 235 565 41 96 86 205 100 243 15 37 30 67 35 67 4 0 14
-17 22 -37 9 -21 99 -234 201 -473 101 -239 188 -446 193 -460 5 -15 11 321
14 842 5 856 5 867 26 894 11 15 33 37 48 48 27 21 37 21 869 24 l842 2 45
-22 c33 -17 51 -35 68 -68 22 -44 22 -50 22 -420 0 -342 2 -379 19 -415 24
-53 75 -103 131 -129 42 -20 67 -21 422 -26 363 -5 378 -6 405 -26 15 -12 37
-36 48 -55 20 -34 20 -57 25 -2344 5 -2251 5 -2311 24 -2342 11 -17 36 -41 56
-52 37 -20 50 -21 464 -21 234 0 426 3 426 8 0 9 -35 93 -230 552 -76 179
-160 379 -188 445 -28 66 -97 233 -155 370 -58 138 -110 275 -116 306 -9 41
-13 474 -15 1550 -2 1398 -4 1498 -20 1549 -46 142 -43 139 -645 741 -713 713
-624 659 -1089 659 l-283 0 -15 38 c-9 20 -96 226 -194 457 -195 459 -342 808
-415 983 l-47 112 -858 0 -857 0 -26 -57z"/>
<path d="M7453 7910 c-143 -29 -252 -171 -240 -315 8 -106 69 -195 165 -242
76 -37 182 -39 260 -4 102 46 172 154 172 267 0 183 -178 329 -357 294z"/>
<path d="M7396 7198 c-143 -27 -290 -136 -348 -257 -26 -54 -32 -79 -32 -136
l-1 -70 498 -3 c569 -3 518 -12 499 96 -44 259 -322 427 -616 370z"/>
<path d="M7031 6276 c-56 -31 -67 -102 -22 -147 l29 -29 1031 0 1030 0 26 23
c15 13 28 37 31 58 5 31 1 42 -24 70 l-30 34 -1024 2 c-837 2 -1027 0 -1047
-11z"/>
<path d="M7039 5641 c-18 -14 -24 -29 -24 -61 0 -32 6 -47 24 -61 22 -18 57
-19 1031 -19 974 0 1009 1 1031 19 18 14 24 29 24 61 0 32 -6 47 -24 61 -22
18 -57 19 -1031 19 -974 0 -1009 -1 -1031 -19z"/>
<path d="M7103 5103 c-27 -5 -63 -48 -63 -75 0 -27 26 -74 45 -82 9 -3 461 -6
1004 -6 l988 0 20 23 c11 12 24 32 27 44 8 26 -15 77 -41 89 -18 9 -1937 15
-1980 7z"/>
<path d="M7344 4540 c-55 -21 -70 -94 -29 -135 l24 -25 869 0 869 0 21 23 c31
33 29 87 -4 118 l-26 24 -851 2 c-469 0 -862 -3 -873 -7z"/>
</g>
</svg>
